<svg width="490" height="215" viewBox="0 0 490 215" fill="none" xmlns="http://www.w3.org/2000/svg">
<g clip-path="url(#clip0_6_5)">
<path d="M105.356 9.44826C165.671 8.1339 213.649 61.1238 204.62 122.722C198.511 164.391 163.658 198.715 121.953 204.502C56.1256 213.635 0.932759 157.975 10.7142 92.2778C17.6301 45.8261 58.5163 10.4687 105.356 9.44826Z" fill="#373E51"/>
<path d="M125.209 199.253C124.932 196.616 128.096 197.305 132.247 196.104C158.608 188.465 180.721 169.606 190.124 143.508C192.141 137.915 193.956 131.171 194.326 125.242C194.452 123.222 194.477 117.868 193.906 118.628C197.397 87.3522 184.645 56.2821 159.137 37.583C125.965 13.2695 80.5707 15.4951 49.8945 42.832C25.9241 64.1935 15.7394 98.1987 23.3191 129.336C23.462 134.98 26.0292 142.824 28.3611 148.127C38.9366 172.197 64.7011 192.505 90.4404 197.573C97.8059 199.022 103.26 198.581 103.886 198.833C104.449 199.06 103.407 200 105.041 200.933C56.7978 199.614 15.9116 159.982 14.0755 111.594C11.5125 44.0582 79.785 -5.34559 142.961 20.5762C176.351 34.2782 199.855 67.5654 201.259 103.616C203.049 149.547 170.318 190.544 125.209 199.253Z" fill="#B4C0CD"/>
<path d="M125.209 199.253C118.726 200.504 111.638 201.113 105.041 200.933C103.407 200 104.449 199.06 103.886 198.833C103.26 198.581 97.8059 199.022 90.4404 197.573C64.7012 192.505 38.9367 172.197 28.3611 148.127C26.0292 142.824 23.462 134.98 23.3192 129.336C27.2561 145.516 37.4157 161.023 49.8946 171.958C81.8355 199.942 127.806 201.714 161.448 175.527C178.591 162.186 191.49 140.267 193.906 118.628C194.477 117.868 194.452 123.222 194.326 125.242C193.956 131.171 192.141 137.915 190.124 143.508C180.721 169.606 158.608 188.465 132.247 196.104C128.096 197.305 124.932 196.616 125.209 199.253Z" fill="#92A2B4"/>
<path d="M193.906 118.628C191.49 140.267 178.591 162.186 161.448 175.527C127.806 201.714 81.8354 199.942 49.8945 171.958C37.4157 161.023 27.2561 145.516 23.3191 129.336C15.7394 98.1988 25.9242 64.1935 49.8945 42.8321C80.5708 15.4951 125.965 13.2696 159.137 37.583C184.645 56.2822 197.397 87.3522 193.906 118.628Z" fill="#373E51"/>
<path d="M187.393 101.201C189.276 126.237 180.776 148.938 162.289 166.079C129.398 196.57 79.159 194.344 48.7391 161.565C33.5964 145.247 26.357 124.906 27.7309 102.671C28.1048 102.805 28.2939 102.171 28.3611 101.936C31.0796 92.2443 31.6384 87.3858 36.7644 77.5806C62.7138 27.9374 129.18 18.2456 166.805 60.5737C175.167 69.98 181.515 81.4649 185.082 93.5376C185.969 96.5359 187.091 103.838 187.393 101.201Z" fill="#F6D7A4"/>
<path d="M137.604 161.88C137.974 161.88 137.507 161.569 137.184 160.83C136.331 158.898 134.638 157.475 133.717 155.581L150.419 155.686C148.7 157.735 144.495 159.789 142.751 161.46C139.062 165.004 141.81 165.676 133.087 167.549C120.856 170.173 97.3648 170.077 84.9783 167.969C73.5709 166.025 76.2935 164.853 73.2137 161.88C71.2095 159.948 65.0541 156.396 65.1256 155.896L81.4069 155.581C81.0288 156.82 76.1633 161.867 77.6254 162.3C80.5036 163.152 130.007 161.645 137.709 162.3L137.604 161.88Z" fill="#DFB77A"/>
<path d="M87.1841 132.275C84.1001 137.025 79.6422 142.664 81.5119 148.547C79.2262 149.58 80.7388 152.734 79.3061 152.432C77.3691 152.02 79.8313 147.33 79.8313 146.868C79.8313 146.213 77.3859 141.497 78.1506 138.679C78.3859 137.814 84.1926 131.562 84.6632 131.436C85.7556 131.142 86.5497 131.444 87.1841 132.275Z" fill="#DFDDDB"/>
<path d="M130.671 131.646C131.188 131.876 136.835 138.024 136.974 138.679C137.65 141.866 135.406 144.436 135.503 147.183C135.398 146.998 134.436 146.246 134.243 145.923C134.192 145.087 134.348 143.995 134.243 143.298C133.894 141.001 129.604 134.631 128.15 132.275C129.096 132.011 129.68 131.205 130.671 131.646Z" fill="#DFDDDB"/>
<path d="M187.393 101.201C187.091 103.838 185.969 96.5359 185.083 93.5376C181.515 81.4649 175.167 69.98 166.805 60.5737C129.18 18.2456 62.7138 27.9374 36.7644 77.5806C31.6384 87.3858 31.0796 92.2442 28.3611 101.936C28.2939 102.171 28.1048 102.805 27.7309 102.671C31.8947 35.2147 110.865 3.68273 160.608 47.0313C176.696 61.0525 185.801 80.0371 187.393 101.201Z" fill="#DFB77A"/>
<path d="M84.6632 105.61C85.159 103.943 86.8943 101.541 86.9741 101.201C87.5497 101 92.4909 105.959 92.4363 106.345C92.1968 107.979 85.8817 105.812 84.6632 105.61Z" fill="#DFB77A"/>
<path d="M70.3776 100.781C71.0457 102.364 72.0835 103.792 72.6885 105.4L64.7054 106.555C64.4743 106.253 69.4406 101.105 69.7474 100.886C70.0205 100.689 70.3062 100.827 70.3776 100.781Z" fill="#DFB77A"/>
<path d="M127.94 100.781C128.793 101.73 129.554 103.721 130.041 104.98C128.864 105.148 121.503 107.521 122.058 105.295C122.142 104.964 126.625 101.13 127.205 100.781C127.722 100.471 127.856 100.827 127.94 100.781Z" fill="#DFB77A"/>
<path d="M142.436 104.98C143.011 103.372 143.978 101.97 144.537 100.361C146.011 101.21 148.869 104.951 150.209 106.345C150.146 107.122 143.348 104.951 142.436 104.98Z" fill="#DFB77A"/>
<path d="M128.15 132.275C129.604 134.631 133.894 141.001 134.243 143.298C134.348 143.995 134.192 145.087 134.243 145.923C134.276 146.481 133.864 147.481 133.822 148.127C135.533 152.117 137.117 155.531 136.554 150.227C136.537 150.067 135.604 147.359 135.503 147.183C135.406 144.436 137.65 141.866 136.974 138.679C136.835 138.024 131.188 131.876 130.671 131.646C132.978 124.78 133.923 117.549 134.243 110.334L128.78 110.125C128.545 109.843 130.877 106.559 130.881 106.345C130.881 106.207 130.117 105.174 130.041 104.98C129.554 103.721 128.793 101.73 127.94 100.781C127.991 100.756 127.797 100.378 128.675 99.9414C129.226 99.6685 131.146 99.6013 131.932 98.7866L130.041 90.5981C131.919 87.919 134.537 86.4829 134.663 86.189C134.999 85.3911 134.079 83.9424 135.608 83.5645C138.02 82.9682 137.533 85.8068 137.604 85.979C137.73 86.2813 140.532 87.8099 142.226 90.5981L140.335 98.7866C140.499 99.2107 143.94 100.017 144.537 100.361C143.978 101.97 143.011 103.372 142.436 104.98C142.411 105.052 141.743 105.694 141.806 106.345C141.831 106.606 143.595 109.562 144.116 110.125L138.444 110.544C139.932 122.311 140.717 134.892 151.049 142.458C151.074 143.042 149.974 145.642 149.999 145.818C150.07 146.334 154.154 147.947 150.734 155.371H133.087L137.184 160.83C137.507 161.569 137.974 161.876 137.604 161.88L77.8355 162.09L77.5204 161.775L82.0372 155.371H64.8104C60.4701 148.879 65.0457 146.141 65.1256 145.608C65.1508 145.436 63.8861 142.853 64.0752 142.249C64.5962 140.556 74.7894 139.024 76.8902 110.544L71.218 110.125C71.6045 109.608 73.2978 106.963 73.3188 106.765C73.3818 106.114 72.7137 105.472 72.6885 105.4C72.0835 103.792 71.0457 102.364 70.3776 100.781C71.802 99.8952 73.0625 99.5929 74.5793 98.9966L72.6885 90.5981C74.4532 88.0114 77.1801 86.4787 77.3103 86.189C77.4238 85.937 76.9952 84.3413 78.0456 83.7744C80.7011 82.3341 80.3691 85.7816 80.4616 85.979C80.596 86.2687 84.4952 89.3552 84.8733 90.5981L82.9826 98.9966L86.8691 100.361C87.2556 100.693 87.075 100.781 86.9741 101.201C86.8943 101.541 85.159 103.943 84.6632 105.61C84.0162 107.786 85.7262 108.025 86.3439 110.125L80.9868 110.229C81.3985 117.175 82.0456 124.973 84.6632 131.436C84.1926 131.562 78.386 137.814 78.1507 138.679C77.386 141.497 79.8313 146.213 79.8313 146.868C79.8313 147.33 77.3692 152.02 79.3061 152.432C80.7389 152.734 79.2263 149.58 81.512 148.547C79.6423 142.664 84.1002 137.025 87.1842 132.275C88.264 130.613 89.7388 129.256 90.7556 127.551C92.7472 122.168 94.7346 90.447 93.6968 88.0786C93.4321 87.4781 92.6085 88.381 91.5959 86.6089C91.1674 85.8572 86.68 70.8786 86.554 70.022C85.4951 62.8077 91.348 64.9535 96.0077 63.7231V49.6558L101.89 49.2358L102.205 43.042H112.919L113.234 49.2358L119.327 49.6558V63.7231C124.344 65.1215 129.835 62.7573 128.57 70.4419C128.436 71.2649 124.091 85.6431 123.739 86.3989C122.579 88.8681 121.814 87.201 121.428 88.0786C120.503 90.1656 122.104 120.673 124.579 127.131C125.428 129.071 127.062 130.512 128.15 132.275Z" fill="#373E51"/>
<path d="M101.365 86.9238L114.285 87.0288C113.785 101.268 115.104 115.411 116.701 129.546H110.398C109.356 119.241 109.113 108.68 108.718 98.2617C108.272 98.3415 106.487 98.1063 106.302 98.3667C105.991 98.8034 106.369 107.618 106.302 109.075C105.991 115.861 105.197 122.655 104.831 129.441H98.3186C100.327 115.332 101.083 101.155 101.365 86.9238Z" fill="#B4C0CD"/>
<path d="M104.726 51.4404C104.995 51.3228 110.34 51.3228 110.608 51.4404C111.814 51.9737 108.503 53.7248 115.335 53.435C114.987 60.4729 116.987 60.8425 111.659 60.4687C111.134 65.7094 111.566 63.8533 116.386 64.353L116.071 69.2871L98.9489 68.9722V64.353C102.911 63.1142 103.982 66.1251 103.571 60.5737L99.7892 60.1538V53.645C100.104 52.9395 103.974 53.5652 104.306 53.3301C104.625 53.1075 104.104 51.7134 104.726 51.4404Z" fill="#B4C0CD"/>
<path d="M92.3312 147.603L123.318 147.917L121.533 153.062C112.285 153.263 103.05 153.049 93.8018 153.062L92.3312 147.603Z" fill="#B4C0CD"/>
<path d="M96.743 137.104L119.222 137.314L121.218 142.249L94.0119 142.354C93.4825 142.148 95.7976 137.331 96.743 137.104Z" fill="#B4C0CD"/>
<path d="M100.524 74.1162H114.6L116.176 79.2603L99.474 79.5752C98.7724 79.2812 100.272 74.9477 100.524 74.1162Z" fill="#B4C0CD"/>
<path d="M135.503 147.183C135.604 147.359 136.537 150.067 136.554 150.227C137.117 155.531 135.533 152.117 133.823 148.127C133.865 147.481 134.276 146.481 134.243 145.923C134.436 146.246 135.398 146.998 135.503 147.183Z" fill="#F2E2D6"/>
<path d="M265.477 93H259.136C258.761 91.1761 258.105 89.5739 257.168 88.1932C256.247 86.8125 255.122 85.6534 253.793 84.7159C252.48 83.7614 251.023 83.0455 249.42 82.5682C247.818 82.0909 246.148 81.8523 244.409 81.8523C241.239 81.8523 238.366 82.6534 235.793 84.2557C233.236 85.858 231.199 88.2188 229.682 91.3381C228.182 94.4574 227.432 98.2841 227.432 102.818C227.432 107.352 228.182 111.179 229.682 114.298C231.199 117.418 233.236 119.778 235.793 121.381C238.366 122.983 241.239 123.784 244.409 123.784C246.148 123.784 247.818 123.545 249.42 123.068C251.023 122.591 252.48 121.884 253.793 120.946C255.122 119.991 256.247 118.824 257.168 117.443C258.105 116.045 258.761 114.443 259.136 112.636H265.477C265 115.312 264.131 117.707 262.869 119.821C261.608 121.935 260.04 123.733 258.165 125.216C256.29 126.682 254.185 127.798 251.849 128.565C249.531 129.332 247.051 129.716 244.409 129.716C239.943 129.716 235.972 128.625 232.494 126.443C229.017 124.261 226.281 121.159 224.287 117.136C222.293 113.114 221.295 108.341 221.295 102.818C221.295 97.2955 222.293 92.5227 224.287 88.5C226.281 84.4773 229.017 81.375 232.494 79.1932C235.972 77.0114 239.943 75.9205 244.409 75.9205C247.051 75.9205 249.531 76.304 251.849 77.071C254.185 77.8381 256.29 78.9631 258.165 80.446C260.04 81.9119 261.608 83.7017 262.869 85.8153C264.131 87.9119 265 90.3068 265.477 93ZM280.94 105.375V129H274.906V76.6364H280.94V95.8636H281.451C282.371 93.8352 283.752 92.2244 285.593 91.0312C287.451 89.821 289.923 89.2159 293.008 89.2159C295.684 89.2159 298.028 89.7528 300.039 90.8267C302.05 91.8835 303.61 93.5114 304.718 95.7102C305.843 97.892 306.406 100.67 306.406 104.045V129H300.371V104.455C300.371 101.335 299.562 98.9233 297.942 97.2188C296.34 95.4972 294.116 94.6364 291.269 94.6364C289.292 94.6364 287.519 95.054 285.951 95.8892C284.4 96.7244 283.173 97.9432 282.269 99.5455C281.383 101.148 280.94 103.091 280.94 105.375ZM333.911 129.818C330.126 129.818 326.862 128.983 324.118 127.312C321.391 125.625 319.286 123.273 317.803 120.256C316.337 117.222 315.604 113.693 315.604 109.67C315.604 105.648 316.337 102.102 317.803 99.0341C319.286 95.9489 321.348 93.5455 323.99 91.8239C326.649 90.0852 329.751 89.2159 333.297 89.2159C335.342 89.2159 337.362 89.5568 339.357 90.2386C341.351 90.9205 343.166 92.0284 344.803 93.5625C346.439 95.0795 347.743 97.0909 348.714 99.5966C349.686 102.102 350.172 105.187 350.172 108.852V111.409H319.899V106.193H344.036C344.036 103.977 343.592 102 342.706 100.261C341.837 98.5227 340.592 97.1506 338.973 96.1449C337.371 95.1392 335.479 94.6364 333.297 94.6364C330.893 94.6364 328.814 95.233 327.058 96.4261C325.32 97.6023 323.982 99.1364 323.044 101.028C322.107 102.92 321.638 104.949 321.638 107.114V110.591C321.638 113.557 322.149 116.071 323.172 118.134C324.212 120.179 325.652 121.739 327.493 122.812C329.334 123.869 331.473 124.398 333.911 124.398C335.496 124.398 336.928 124.176 338.206 123.733C339.501 123.273 340.618 122.591 341.555 121.688C342.493 120.767 343.217 119.625 343.729 118.261L349.558 119.898C348.945 121.875 347.913 123.614 346.464 125.114C345.016 126.597 343.226 127.756 341.095 128.591C338.964 129.409 336.57 129.818 333.911 129.818ZM387.169 98.5227L381.749 100.057C381.408 99.1534 380.905 98.2756 380.24 97.4233C379.592 96.554 378.706 95.8381 377.581 95.2756C376.456 94.7131 375.016 94.4318 373.26 94.4318C370.857 94.4318 368.854 94.9858 367.251 96.0938C365.666 97.1847 364.874 98.5739 364.874 100.261C364.874 101.761 365.419 102.946 366.51 103.815C367.601 104.685 369.305 105.409 371.624 105.989L377.453 107.42C380.964 108.273 383.581 109.577 385.303 111.332C387.024 113.071 387.885 115.312 387.885 118.057C387.885 120.307 387.237 122.318 385.942 124.091C384.663 125.864 382.874 127.261 380.572 128.284C378.271 129.307 375.595 129.818 372.544 129.818C368.538 129.818 365.223 128.949 362.598 127.21C359.973 125.472 358.311 122.932 357.612 119.591L363.339 118.159C363.885 120.273 364.916 121.858 366.433 122.915C367.967 123.972 369.97 124.5 372.442 124.5C375.254 124.5 377.487 123.903 379.141 122.71C380.811 121.5 381.646 120.051 381.646 118.364C381.646 117 381.169 115.858 380.214 114.938C379.26 114 377.794 113.301 375.817 112.841L369.271 111.307C365.675 110.455 363.033 109.134 361.345 107.344C359.675 105.537 358.839 103.278 358.839 100.568C358.839 98.3523 359.462 96.392 360.706 94.6875C361.967 92.983 363.68 91.6449 365.845 90.6733C368.027 89.7017 370.499 89.2159 373.26 89.2159C377.146 89.2159 380.197 90.0682 382.413 91.7727C384.646 93.4773 386.232 95.7273 387.169 98.5227ZM424.786 98.5227L419.366 100.057C419.025 99.1534 418.522 98.2756 417.857 97.4233C417.21 96.554 416.323 95.8381 415.198 95.2756C414.073 94.7131 412.633 94.4318 410.877 94.4318C408.474 94.4318 406.471 94.9858 404.869 96.0938C403.283 97.1847 402.491 98.5739 402.491 100.261C402.491 101.761 403.036 102.946 404.127 103.815C405.218 104.685 406.923 105.409 409.241 105.989L415.07 107.42C418.582 108.273 421.198 109.577 422.92 111.332C424.641 113.071 425.502 115.312 425.502 118.057C425.502 120.307 424.854 122.318 423.559 124.091C422.281 125.864 420.491 127.261 418.19 128.284C415.888 129.307 413.212 129.818 410.161 129.818C406.156 129.818 402.84 128.949 400.215 127.21C397.59 125.472 395.928 122.932 395.229 119.591L400.957 118.159C401.502 120.273 402.533 121.858 404.05 122.915C405.585 123.972 407.587 124.5 410.059 124.5C412.871 124.5 415.104 123.903 416.758 122.71C418.428 121.5 419.263 120.051 419.263 118.364C419.263 117 418.786 115.858 417.832 114.938C416.877 114 415.411 113.301 413.434 112.841L406.888 111.307C403.292 110.455 400.65 109.134 398.962 107.344C397.292 105.537 396.457 103.278 396.457 100.568C396.457 98.3523 397.079 96.392 398.323 94.6875C399.585 92.983 401.298 91.6449 403.462 90.6733C405.644 89.7017 408.116 89.2159 410.877 89.2159C414.763 89.2159 417.815 90.0682 420.031 91.7727C422.263 93.4773 423.849 95.7273 424.786 98.5227Z" fill="#22B573"/>
<path d="M441.744 76.6364V129H435.403V76.6364H441.744ZM459.674 105.375V129H453.64V89.7273H459.469V95.8636H459.981C460.901 93.8693 462.299 92.267 464.174 91.0568C466.049 89.8295 468.469 89.2159 471.435 89.2159C474.094 89.2159 476.421 89.7614 478.415 90.8523C480.41 91.9261 481.961 93.5625 483.069 95.7614C484.177 97.9432 484.731 100.705 484.731 104.045V129H478.697V104.455C478.697 101.369 477.896 98.9659 476.293 97.2443C474.691 95.5057 472.492 94.6364 469.697 94.6364C467.771 94.6364 466.049 95.054 464.532 95.8892C463.032 96.7244 461.847 97.9432 460.978 99.5455C460.109 101.148 459.674 103.091 459.674 105.375Z" fill="black"/>
</g>
<defs>
<clipPath id="clip0_6_5">
<rect width="490" height="215" fill="white"/>
</clipPath>
</defs>
</svg>
